<svg xmlns="http://www.w3.org/2000/svg" viewBox="0 0 100 100">
  <defs>
    <linearGradient id="bg" x1="0" y1="0" x2="1" y2="1">
      <stop offset="0" stop-color="#2a0a00"/>
      <stop offset="1" stop-color="#1a1200"/>
    </linearGradient>
    <linearGradient id="plate" x1="0" y1="0" x2="1" y2="0">
      <stop offset="0" stop-color="#ff4e00"/>
      <stop offset="0.5" stop-color="#ffe94e"/>
      <stop offset="1" stop-color="#ff4e00"/>
    </linearGradient>
    <radialGradient id="ball" cx="40%" cy="35%" r="60%">
      <stop offset="0" stop-color="#ffffff"/>
      <stop offset="0.4" stop-color="#b8d4ff"/>
      <stop offset="1" stop-color="#3670c0"/>
    </radialGradient>
  </defs>
  <rect width="100" height="100" rx="24" fill="url(#bg)"/>
  <rect x="10" y="62" width="38" height="10" rx="3" fill="url(#plate)" opacity="0.9"/>
  <rect x="52" y="68" width="38" height="10" rx="3" fill="url(#plate)" opacity="0.9"/>
  <line x1="44" y1="62" x2="50" y2="72" stroke="#1a1200" stroke-width="2.5"/>
  <line x1="48" y1="62" x2="54" y2="72" stroke="#1a1200" stroke-width="2.5"/>
  <rect x="20" y="50" width="8" height="5" rx="1" fill="#ff6a00" opacity="0.8" transform="rotate(-25 24 52)"/>
  <rect x="68" y="48" width="6" height="4" rx="1" fill="#ffe94e" opacity="0.8" transform="rotate(18 71 50)"/>
  <rect x="40" y="44" width="5" height="4" rx="1" fill="#ff4e00" opacity="0.7" transform="rotate(-10 42 46)"/>
  <circle cx="50" cy="34" r="18" fill="url(#ball)"/>
  <circle cx="43" cy="28" r="5" fill="rgba(255,255,255,0.6)"/>
</svg>
